HIERARCHY
ROOT Hips
{
	OFFSET 0.053599 88.859886 3.107447
	CHANNELS 6 Xposition Yposition Zposition Zrotation Yrotation Xrotation 
	JOINT Spine
	{
		OFFSET -0.000000 8.814246 -2.080107
		CHANNELS 3 Zrotation Yrotation Xrotation
		JOINT Spine1
		{
			OFFSET 0.000000 8.844141 0.000000
			CHANNELS 3 Zrotation Yrotation Xrotation
			JOINT Spine2
			{
				OFFSET -0.000000 11.682268 0.000000
				CHANNELS 3 Zrotation Yrotation Xrotation
				JOINT Spine3
				{
					OFFSET 0.000000 11.746700 0.000000
					CHANNELS 3 Zrotation Yrotation Xrotation
					JOINT Neck
					{
						OFFSET -0.000000 17.658264 -0.000000
						CHANNELS 3 Zrotation Yrotation Xrotation
						JOINT Neck1
						{
							OFFSET -0.000000 5.101515 -0.000000
							CHANNELS 3 Zrotation Yrotation Xrotation
							JOINT Head
							{
								OFFSET 0.000000 5.101515 0.000000
								CHANNELS 3 Zrotation Yrotation Xrotation
								JOINT HeadEnd
								{
									OFFSET 0.000000 11.655085 0.000000
									CHANNELS 3 Zrotation Yrotation Xrotation
									End Site
									{
										OFFSET 0.000000 0.000000 0.000000
									}
								}
							}
						}
					}
					JOINT RightShoulder
					{
						OFFSET -2.625389 11.175210 0.000000
						CHANNELS 3 Zrotation Yrotation Xrotation
						JOINT RightArm
						{
							OFFSET -0.000000 10.434715 -0.000000
							CHANNELS 3 Zrotation Yrotation Xrotation
							JOINT RightForeArm
							{
								OFFSET -0.000000 29.628420 0.000000
								CHANNELS 3 Zrotation Yrotation Xrotation
								JOINT RightHand
								{
									OFFSET -0.000000 22.857611 0.000000
									CHANNELS 3 Zrotation Yrotation Xrotation
									JOINT RightHandThumb1
									{
										OFFSET -2.867323 3.959563 2.944291
										CHANNELS 3 Zrotation Yrotation Xrotation
										JOINT RightHandThumb2
										{
											OFFSET 0.000000 3.350399 0.000000
											CHANNELS 3 Zrotation Yrotation Xrotation
											JOINT RightHandThumb3
											{
												OFFSET 0.000000 3.756509 -0.000000
												CHANNELS 3 Zrotation Yrotation Xrotation
												JOINT RightHandThumb4
												{
													OFFSET 0.000000 3.147345 0.000000
													CHANNELS 3 Zrotation Yrotation Xrotation
													End Site
													{
														OFFSET 0.000000 0.000000 0.000000
													}
												}
											}
										}
									}
									JOINT RightHandIndex1
									{
										OFFSET -0.086752 10.030893 2.345280
										CHANNELS 3 Zrotation Yrotation Xrotation
										JOINT RightHandIndex2
										{
											OFFSET -0.000000 4.061090 0.000000
											CHANNELS 3 Zrotation Yrotation Xrotation
											JOINT RightHandIndex3
											{
												OFFSET -0.000000 3.248873 0.000000
												CHANNELS 3 Zrotation Yrotation Xrotation
												JOINT RightHandIndex4
												{
													OFFSET 0.000000 2.639709 -0.000000
													CHANNELS 3 Zrotation Yrotation Xrotation
													End Site
													{
														OFFSET 0.000000 0.000000 0.000000
													}
												}
											}
										}
									}
									JOINT RightHandMiddle1
									{
										OFFSET 0.104102 9.502952 0.006768
										CHANNELS 3 Zrotation Yrotation Xrotation
										JOINT RightHandMiddle2
										{
											OFFSET 0.000000 4.568727 0.000000
											CHANNELS 3 Zrotation Yrotation Xrotation
											JOINT RightHandMiddle3
											{
												OFFSET 0.000000 3.654981 -0.000000
												CHANNELS 3 Zrotation Yrotation Xrotation
												JOINT RightHandMiddle4
												{
													OFFSET -0.000000 2.741236 -0.000000
													CHANNELS 3 Zrotation Yrotation Xrotation
													End Site
													{
														OFFSET 0.000000 0.000000 0.000000
													}
												}
											}
										}
									}
									JOINT RightHandRing1
									{
										OFFSET 0.086752 8.921708 -2.267442
										CHANNELS 3 Zrotation Yrotation Xrotation
										JOINT RightHandRing2
										{
											OFFSET -0.000000 4.061090 0.000000
											CHANNELS 3 Zrotation Yrotation Xrotation
											JOINT RightHandRing3
											{
												OFFSET 0.000000 3.654981 -0.000000
												CHANNELS 3 Zrotation Yrotation Xrotation
												JOINT RightHandRing4
												{
													OFFSET 0.000000 2.741236 -0.000000
													CHANNELS 3 Zrotation Yrotation Xrotation
													End Site
													{
														OFFSET 0.000000 0.000000 0.000000
													}
												}
											}
										}
									}
									JOINT RightHandPinky1
									{
										OFFSET -0.173504 7.976997 -4.467199
										CHANNELS 3 Zrotation Yrotation Xrotation
										JOINT RightHandPinky2
										{
											OFFSET 0.000000 3.350399 -0.000000
											CHANNELS 3 Zrotation Yrotation Xrotation
											JOINT RightHandPinky3
											{
												OFFSET -0.000000 2.842763 0.000000
												CHANNELS 3 Zrotation Yrotation Xrotation
												JOINT RightHandPinky4
												{
													OFFSET -0.000000 2.639709 0.000000
													CHANNELS 3 Zrotation Yrotation Xrotation
													End Site
													{
														OFFSET 0.000000 0.000000 0.000000
													}
												}
											}
										}
									}
									JOINT RightForeArmEnd
									{
										OFFSET 0.000000 0.000000 0.000000
										CHANNELS 3 Zrotation Yrotation Xrotation
										End Site
										{
											OFFSET 0.000000 0.000000 0.000000
										}
									}
								}
								JOINT RightArmEnd
								{
									OFFSET 0.000000 0.000000 0.000000
									CHANNELS 3 Zrotation Yrotation Xrotation
									End Site
									{
										OFFSET 0.000000 0.000000 0.000000
									}
								}
							}
						}
					}
					JOINT LeftShoulder
					{
						OFFSET 2.625389 11.175210 0.000000
						CHANNELS 3 Zrotation Yrotation Xrotation
						JOINT LeftArm
						{
							OFFSET 0.000000 10.813635 -0.000000
							CHANNELS 3 Zrotation Yrotation Xrotation
							JOINT LeftForeArm
							{
								OFFSET 0.000000 28.724781 0.000000
								CHANNELS 3 Zrotation Yrotation Xrotation
								JOINT LeftHand
								{
									OFFSET 0.644384 25.716167 -0.328871
									CHANNELS 3 Zrotation Yrotation Xrotation
									JOINT LeftHandThumb1
									{
										OFFSET 2.867323 3.959563 2.944291
										CHANNELS 3 Zrotation Yrotation Xrotation
										JOINT LeftHandThumb2
										{
											OFFSET 0.000000 3.350399 0.000000
											CHANNELS 3 Zrotation Yrotation Xrotation
											JOINT LeftHandThumb3
											{
												OFFSET -0.000000 3.756509 0.000000
												CHANNELS 3 Zrotation Yrotation Xrotation
												JOINT LeftHandThumb4
												{
													OFFSET -0.000000 3.100000 0.000000
													CHANNELS 3 Zrotation Yrotation Xrotation
													End Site
													{
														OFFSET 0.000000 0.000000 0.000000
													}
												}
											}
										}
									}
									JOINT LeftHandIndex1
									{
										OFFSET 0.086752 10.030893 2.345280
										CHANNELS 3 Zrotation Yrotation Xrotation
										JOINT LeftHandIndex2
										{
											OFFSET -0.000000 4.061090 -0.000000
											CHANNELS 3 Zrotation Yrotation Xrotation
											JOINT LeftHandIndex3
											{
												OFFSET 0.000000 3.248873 -0.000000
												CHANNELS 3 Zrotation Yrotation Xrotation
												JOINT LeftHandIndex4
												{
													OFFSET 0.000000 2.639709 -0.000000
													CHANNELS 3 Zrotation Yrotation Xrotation
													End Site
													{
														OFFSET 0.000000 0.000000 0.000000
													}
												}
											}
										}
									}
									JOINT LeftHandMiddle1
									{
										OFFSET -0.104102 9.502952 0.006768
										CHANNELS 3 Zrotation Yrotation Xrotation
										JOINT LeftHandMiddle2
										{
											OFFSET -0.000000 4.568727 -0.000000
											CHANNELS 3 Zrotation Yrotation Xrotation
											JOINT LeftHandMiddle3
											{
												OFFSET 0.000000 3.654981 0.000000
												CHANNELS 3 Zrotation Yrotation Xrotation
												JOINT LeftHandMiddle4
												{
													OFFSET 0.000000 2.741236 -0.000000
													CHANNELS 3 Zrotation Yrotation Xrotation
													End Site
													{
														OFFSET 0.000000 0.000000 0.000000
													}
												}
											}
										}
									}
									JOINT LeftHandRing1
									{
										OFFSET -0.086752 8.921708 -2.267442
										CHANNELS 3 Zrotation Yrotation Xrotation
										JOINT LeftHandRing2
										{
											OFFSET 0.000000 4.061090 0.000000
											CHANNELS 3 Zrotation Yrotation Xrotation
											JOINT LeftHandRing3
											{
												OFFSET 0.000000 3.654981 0.000000
												CHANNELS 3 Zrotation Yrotation Xrotation
												JOINT LeftHandRing4
												{
													OFFSET 0.000000 2.741236 0.000000
													CHANNELS 3 Zrotation Yrotation Xrotation
													End Site
													{
														OFFSET 0.000000 0.000000 0.000000
													}
												}
											}
										}
									}
									JOINT LeftHandPinky1
									{
										OFFSET 0.173504 7.976997 -4.467199
										CHANNELS 3 Zrotation Yrotation Xrotation
										JOINT LeftHandPinky2
										{
											OFFSET -0.000000 3.350399 -0.000000
											CHANNELS 3 Zrotation Yrotation Xrotation
											JOINT LeftHandPinky3
											{
												OFFSET 0.000000 2.842763 0.000000
												CHANNELS 3 Zrotation Yrotation Xrotation
												JOINT LeftHandPinky4
												{
													OFFSET -0.000000 2.639709 -0.000000
													CHANNELS 3 Zrotation Yrotation Xrotation
													End Site
													{
														OFFSET 0.000000 0.000000 0.000000
													}
												}
											}
										}
									}
									JOINT LeftForeArmEnd
									{
										OFFSET 0.000000 0.000000 0.000000
										CHANNELS 3 Zrotation Yrotation Xrotation
										End Site
										{
											OFFSET 0.000000 0.000000 0.000000
										}
									}
								}
								JOINT LeftArmEnd
								{
									OFFSET 0.000000 0.000000 0.000000
									CHANNELS 3 Zrotation Yrotation Xrotation
									End Site
									{
										OFFSET 0.000000 0.000000 0.000000
									}
								}
							}
						}
					}
				}
			}
		}
	}
	JOINT RightUpLeg
	{
		OFFSET -11.289943 0.000000 0.000000
		CHANNELS 3 Zrotation Yrotation Xrotation
		JOINT RightLeg
		{
			OFFSET 0.000000 -38.200325 0.000000
			CHANNELS 3 Zrotation Yrotation Xrotation
			JOINT RightFoot
			{
				OFFSET -0.000000 -39.900856 -0.000000
				CHANNELS 3 Zrotation Yrotation Xrotation
				JOINT RightToeBase
				{
					OFFSET 0.000000 0.000000 15.261641
					CHANNELS 3 Zrotation Yrotation Xrotation
					JOINT RightToeBaseEnd
					{
						OFFSET 0.000000 0.000000 7.370709
						CHANNELS 3 Zrotation Yrotation Xrotation
						End Site
						{
							OFFSET 0.000000 0.000000 0.000000
						}
					}
				}
				JOINT RightLegEnd
				{
					OFFSET 0.000000 0.000000 0.000000
					CHANNELS 3 Zrotation Yrotation Xrotation
					End Site
					{
						OFFSET 0.000000 0.000000 0.000000
					}
				}
			}
			JOINT RightUpLegEnd
			{
				OFFSET 0.000000 0.000000 0.000000
				CHANNELS 3 Zrotation Yrotation Xrotation
				End Site
				{
					OFFSET 0.000000 0.000000 0.000000
				}
			}
		}
	}
	JOINT LeftUpLeg
	{
		OFFSET 11.315661 -0.000000 0.000000
		CHANNELS 3 Zrotation Yrotation Xrotation
		JOINT LeftLeg
		{
			OFFSET -0.000000 -38.200325 -0.000000
			CHANNELS 3 Zrotation Yrotation Xrotation
			JOINT LeftFoot
			{
				OFFSET 0.000000 -39.900856 -0.000000
				CHANNELS 3 Zrotation Yrotation Xrotation
				JOINT LeftToeBase
				{
					OFFSET -0.000000 -0.000000 15.261641
					CHANNELS 3 Zrotation Yrotation Xrotation
					JOINT LeftToeBaseEnd
					{
						OFFSET 0.000000 -0.000000 7.539996
						CHANNELS 3 Zrotation Yrotation Xrotation
						End Site
						{
							OFFSET 0.000000 0.000000 0.000000
						}
					}
				}
				JOINT LeftLegEnd
				{
					OFFSET 0.000000 0.000000 0.000000
					CHANNELS 3 Zrotation Yrotation Xrotation
					End Site
					{
						OFFSET 0.000000 0.000000 0.000000
					}
				}
			}
			JOINT LeftUpLegEnd
			{
				OFFSET 0.000000 0.000000 0.000000
				CHANNELS 3 Zrotation Yrotation Xrotation
				End Site
				{
					OFFSET 0.000000 0.000000 0.000000
				}
			}
		}
	}
}
MOTION
Frames: 5
Frame Time: 0.016667
0.175951 88.624069 2.839471 0.142582 -1.025619 -10.170817 0.829623 0.114759 7.116254 -1.152549 0.444118 3.155474 0.553372 -0.815440 3.901159 -1.365752 0.239926 5.079329 3.122321 -0.850091 5.774588 0.407704 0.255150 -2.839238 0.013926 -0.674943 -20.833313 0.000000 0.000000 0.000000 92.330215 0.013595 9.316515 69.466660 -21.893705 1.185682 0.212921 18.289576 33.734058 -4.853123 6.160123 -6.974010 17.185644 30.983683 64.678413 -5.537108 -7.072949 -12.615823 -4.015701 -4.666271 -8.602677 0.000000 0.000000 0.000000 -8.205811 -7.577578 9.597573 1.186192 0.559858 0.414120 0.892469 0.125130 0.466832 0.000000 0.000000 0.000000 -7.682211 -2.137057 5.468883 0.159187 0.530616 0.130388 0.459364 0.031812 0.133216 0.000000 0.000000 0.000000 -5.991945 5.603631 1.070953 0.284396 -1.021358 -0.303761 0.196897 -0.039882 -0.195925 0.000000 0.000000 0.000000 -5.557886 13.787699 -3.809036 0.627024 -2.022120 -0.929457 0.477639 -0.048662 -0.732540 0.000000 0.000000 0.000000 0.000000 0.000000 0.000000 0.000000 0.000000 0.000000 -90.155457 -0.003426 4.783649 -70.805344 14.835964 -7.829498 -0.134882 -12.515030 58.257694 13.886258 -3.152145 -12.345125 -15.537726 -31.632849 66.477150 3.470634 3.725345 -7.041477 2.373120 2.568807 -5.049538 0.000000 0.000000 0.000000 15.634354 -11.910064 15.787141 -1.225809 0.596420 -0.149066 -1.254105 0.129625 -0.220215 0.000000 0.000000 0.000000 15.017454 -6.320715 9.843551 -1.263356 0.538314 -0.105775 -1.549615 0.042585 -0.080937 0.000000 0.000000 0.000000 11.847122 2.497102 2.894218 -2.873635 -1.052615 0.257391 -2.900601 -0.053376 0.217370 0.000000 0.000000 0.000000 6.737961 12.522729 -4.809236 -4.737380 -2.035891 1.140607 -4.375725 -0.001244 1.037723 0.000000 0.000000 0.000000 0.000000 0.000000 0.000000 0.000000 0.000000 0.000000 -0.407795 -8.742274 13.774023 -0.082733 -0.704514 5.560245 -3.387002 -7.656175 17.294985 -0.754891 0.810305 -18.969793 0.000000 0.000000 0.000000 0.000000 0.000000 0.000000 0.000000 0.000000 0.000000 -1.551182 -6.044452 8.596563 0.057760 0.286842 10.516473 3.872548 -1.180758 16.686083 0.260829 -0.403294 -20.608215 0.000000 0.000000 0.000000 0.000000 0.000000 0.000000 0.000000 0.000000 0.000000 
0.162935 88.616280 2.838382 0.150896 -0.993282 -10.163936 0.831476 0.118127 7.110560 -1.170348 0.448846 3.159118 0.540942 -0.789962 3.938428 -1.372208 0.251407 5.111032 3.158638 -0.859760 5.810794 0.408507 0.243967 -2.830381 0.024253 -0.667583 -20.842493 0.000000 0.000000 0.000000 92.276489 0.020073 9.289016 69.531303 -21.408525 1.049291 0.205872 18.506886 34.406296 -5.068705 6.460506 -6.806435 17.212482 30.973642 64.652405 -5.573864 -7.127741 -12.703307 -4.043090 -4.699052 -8.659495 0.000000 0.000000 0.000000 -8.060426 -7.603245 9.638180 1.220098 0.556788 0.426629 0.928453 0.122219 0.480399 0.000000 0.000000 0.000000 -7.508245 -2.167105 5.507090 0.205904 0.530164 0.134897 0.513499 0.031065 0.137003 0.000000 0.000000 0.000000 -5.724648 5.559709 1.068538 0.370591 -1.020228 -0.308489 0.283963 -0.039008 -0.199266 0.000000 0.000000 0.000000 -5.227212 13.743486 -3.846678 0.753505 -2.017926 -0.939020 0.596937 -0.044648 -0.737945 0.000000 0.000000 0.000000 0.000000 0.000000 0.000000 0.000000 0.000000 0.000000 -90.142334 0.000336 4.726384 -70.837296 14.357815 -7.989421 -0.159016 -12.738281 59.128208 14.005936 -3.382293 -12.006484 -15.582820 -31.613583 66.424614 3.539493 3.821484 -7.196716 2.424120 2.633142 -5.160413 0.000000 0.000000 0.000000 15.170252 -11.837569 15.716708 -1.241221 0.593008 -0.153651 -1.268688 0.125884 -0.224031 0.000000 0.000000 0.000000 14.525950 -6.241020 9.789638 -1.304004 0.536292 -0.108933 -1.590341 0.041074 -0.083522 0.000000 0.000000 0.000000 11.218891 2.607526 2.850177 -3.003772 -1.049958 0.265433 -3.030565 -0.051217 0.223644 0.000000 0.000000 0.000000 6.018006 12.655457 -4.869603 -4.946620 -2.027291 1.168350 -4.581210 0.006962 1.061549 0.000000 0.000000 0.000000 0.000000 0.000000 0.000000 0.000000 0.000000 0.000000 -0.411382 -8.757693 13.785793 -0.082457 -0.705006 5.538775 -3.382898 -7.633255 17.281290 -0.751008 0.811250 -18.960350 0.000000 0.000000 0.000000 0.000000 0.000000 0.000000 0.000000 0.000000 0.000000 -1.554808 -6.052166 8.589234 0.058176 0.289932 10.494373 3.875209 -1.256085 16.676313 0.260250 -0.405587 -20.599804 0.000000 0.000000 0.000000 0.000000 0.000000 0.000000 0.000000 0.000000 0.000000 
0.150679 88.609001 2.839508 0.157609 -0.956345 -10.155692 0.837593 0.120779 7.103785 -1.188192 0.453987 3.160470 0.526815 -0.761093 3.975855 -1.379673 0.264799 5.141408 3.189397 -0.867161 5.849389 0.409611 0.233538 -2.820662 0.033460 -0.661199 -20.851875 0.000000 0.000000 0.000000 92.217896 0.027112 9.264032 69.583588 -20.937904 0.909332 0.198425 18.717192 35.078304 -5.268395 6.735023 -6.630569 17.234694 30.965303 64.631752 -5.604292 -7.172995 -12.774811 -4.065975 -4.725684 -8.705192 0.000000 0.000000 0.000000 -7.940676 -7.624126 9.693324 1.248392 0.553787 0.439222 0.958593 0.119333 0.493914 0.000000 0.000000 0.000000 -7.361221 -2.192472 5.553781 0.247250 0.529751 0.139404 0.562200 0.030344 0.140741 0.000000 0.000000 0.000000 -5.489842 5.521032 1.068240 0.452829 -1.019132 -0.313168 0.367717 -0.038184 -0.202537 0.000000 0.000000 0.000000 -4.931727 13.704902 -3.888776 0.877611 -2.013624 -0.948420 0.714281 -0.040589 -0.743240 0.000000 0.000000 0.000000 0.000000 0.000000 0.000000 0.000000 0.000000 0.000000 -90.126701 0.003498 4.669110 -70.865784 13.858579 -8.143233 -0.181805 -12.967181 60.035912 14.096681 -3.589441 -11.629498 -15.630185 -31.593500 66.369080 3.610829 3.922361 -7.359435 2.477370 2.700507 -5.276502 0.000000 0.000000 0.000000 14.683746 -11.760284 15.644483 -1.251291 0.589772 -0.157509 -1.278445 0.122319 -0.226945 0.000000 0.000000 0.000000 14.013185 -6.157248 9.732866 -1.339116 0.534359 -0.111652 -1.626681 0.039627 -0.085708 0.000000 0.000000 0.000000 10.569572 2.721198 2.800550 -3.131789 -1.047353 0.273154 -3.158151 -0.049139 0.229643 0.000000 0.000000 0.000000 5.281429 12.789258 -4.934447 -5.156395 -2.018658 1.195934 -4.787076 0.015067 1.085157 0.000000 0.000000 0.000000 0.000000 0.000000 0.000000 0.000000 0.000000 0.000000 -0.413548 -8.775078 13.799016 -0.082092 -0.705306 5.516182 -3.378139 -7.612980 17.267477 -0.747124 0.812327 -18.949440 0.000000 0.000000 0.000000 0.000000 0.000000 0.000000 0.000000 0.000000 0.000000 -1.557051 -6.063684 8.583063 0.058657 0.293367 10.470833 3.874957 -1.333164 16.666264 0.260063 -0.408183 -20.592798 0.000000 0.000000 0.000000 0.000000 0.000000 0.000000 0.000000 0.000000 0.000000 
0.138878 88.602112 2.842734 0.163195 -0.914610 -10.147531 0.846713 0.123022 7.096711 -1.205583 0.459528 3.159949 0.510541 -0.728199 4.013565 -1.388573 0.279951 5.170991 3.216862 -0.875106 5.892355 0.411084 0.221226 -2.809063 0.042557 -0.655728 -20.861906 0.000000 0.000000 0.000000 92.156754 0.034543 9.241805 69.624123 -20.481695 0.767444 0.191128 18.918417 35.740746 -5.455028 6.983026 -6.449038 17.252447 30.958647 64.616310 -5.628386 -7.208965 -12.830730 -4.084384 -4.746426 -8.740136 0.000000 0.000000 0.000000 -7.847597 -7.640245 9.762391 1.271145 0.551103 0.451142 0.982668 0.116716 0.506717 0.000000 0.000000 0.000000 -7.241976 -2.213094 5.608663 0.282948 0.529467 0.143600 0.604947 0.029732 0.144193 0.000000 0.000000 0.000000 -5.288427 5.487835 1.070904 0.529541 -1.018223 -0.317455 0.446283 -0.037518 -0.205485 0.000000 0.000000 0.000000 -4.672655 13.672198 -3.933356 0.996800 -2.009680 -0.956716 0.826976 -0.036886 -0.747594 0.000000 0.000000 0.000000 0.000000 0.000000 0.000000 0.000000 0.000000 0.000000 -90.109550 0.005958 4.612309 -70.889915 13.348047 -8.285668 -0.202425 -13.196642 60.973942 14.153788 -3.776793 -11.220984 -15.678915 -31.572897 66.311630 3.683617 4.026097 -7.526660 2.532030 2.769607 -5.395821 0.000000 0.000000 0.000000 14.182063 -11.679262 15.573227 -1.255864 0.586964 -0.159926 -1.283394 0.119191 -0.228346 0.000000 0.000000 0.000000 13.486129 -6.070262 9.675396 -1.367843 0.532627 -0.113693 -1.657817 0.038347 -0.087303 0.000000 0.000000 0.000000 9.908302 2.836402 2.746709 -3.254280 -1.044966 0.280106 -3.280039 -0.047272 0.235040 0.000000 0.000000 0.000000 4.537967 12.921483 -5.003468 -5.361367 -2.010482 1.222119 -4.988025 0.022660 1.107485 0.000000 0.000000 0.000000 0.000000 0.000000 0.000000 0.000000 0.000000 0.000000 -0.414976 -8.794252 13.815082 -0.081699 -0.705550 5.492425 -3.372778 -7.595984 17.252504 -0.743424 0.813706 -18.936945 0.000000 0.000000 0.000000 0.000000 0.000000 0.000000 0.000000 0.000000 0.000000 -1.557952 -6.078846 8.578212 0.059186 0.297027 10.448381 3.871921 -1.410894 16.654995 0.260174 -0.410944 -20.586531 0.000000 0.000000 0.000000 0.000000 0.000000 0.000000 0.000000 0.000000 0.000000 
0.127469 88.595573 2.847824 0.168429 -0.867755 -10.140521 0.857528 0.125114 7.089862 -1.221806 0.465425 3.158124 0.491241 -0.690751 4.051815 -1.398977 0.296524 5.199699 3.242682 -0.885952 5.941263 0.412988 0.204945 -2.794517 0.052336 -0.651222 -20.872450 0.000000 0.000000 0.000000 92.095718 0.042153 9.222635 69.651802 -20.043940 0.627283 0.184413 19.107853 36.381294 -5.628944 7.204304 -6.265645 17.266298 30.953489 64.605400 -5.646697 -7.236663 -12.872751 -4.098777 -4.762056 -8.765702 0.000000 0.000000 0.000000 -7.778777 -7.652078 9.843172 1.287831 0.548881 0.461876 0.999894 0.114521 0.518375 0.000000 0.000000 0.000000 -7.148430 -2.229335 5.670512 0.312197 0.529355 0.147290 0.640673 0.029285 0.147208 0.000000 0.000000 0.000000 -5.118631 5.459747 1.077538 0.598934 -1.017561 -0.321147 0.517647 -0.037065 -0.207959 0.000000 0.000000 0.000000 -4.448517 13.644929 -3.977516 1.108840 -2.006328 -0.963350 0.932659 -0.033766 -0.750540 0.000000 0.000000 0.000000 0.000000 0.000000 0.000000 0.000000 0.000000 0.000000 -90.092644 0.007666 4.556891 -70.905899 12.838677 -8.410616 -0.220573 -13.422882 61.931816 14.173965 -3.947673 -10.788004 -15.728902 -31.551954 66.252686 3.757261 4.132195 -7.697260 2.587708 2.840132 -5.517803 0.000000 0.000000 0.000000 13.670644 -11.595679 15.504439 -1.255422 0.584674 -0.160713 -1.284057 0.116602 -0.228092 0.000000 0.000000 0.000000 12.950205 -5.980968 9.618635 -1.390220 0.531138 -0.114985 -1.683903 0.037266 -0.088266 0.000000 0.000000 0.000000 9.243406 2.951814 2.690807 -3.369051 -1.042871 0.286063 -3.394115 -0.045670 0.239691 0.000000 0.000000 0.000000 3.796913 13.050653 -5.074310 -5.558038 -2.003026 1.246280 -5.180485 0.029532 1.128035 0.000000 0.000000 0.000000 0.000000 0.000000 0.000000 0.000000 0.000000 0.000000 -0.416662 -8.814866 13.834522 -0.081317 -0.705804 5.468277 -3.366958 -7.582617 17.235394 -0.739964 0.815333 -18.922853 0.000000 0.000000 0.000000 0.000000 0.000000 0.000000 0.000000 0.000000 0.000000 -1.558491 -6.097503 8.574745 0.059730 0.300777 10.428712 3.866590 -1.488150 16.642450 0.260486 -0.413726 -20.580820 0.000000 0.000000 0.000000 0.000000 0.000000 0.000000 0.000000 0.000000 0.000000 
